<?xml version="1.0" encoding="UTF-8"?>
<svg id="Layer_2" data-name="Layer 2" xmlns="http://www.w3.org/2000/svg" xmlns:xlink="http://www.w3.org/1999/xlink" viewBox="0 0 989.14 765.51">
  <defs>
    <style>
      .cls-1 {
        stroke: aqua;
      }

      .cls-1, .cls-2, .cls-3, .cls-4, .cls-5, .cls-6, .cls-7, .cls-8, .cls-9, .cls-10, .cls-11, .cls-12, .cls-13, .cls-14, .cls-15, .cls-16, .cls-17, .cls-18 {
        fill: none;
        stroke-miterlimit: 10;
        stroke-width: 2px;
      }

      .cls-2 {
        stroke: #07ff9a;
      }

      .cls-3 {
        stroke: #01ffeb;
      }

      .cls-4 {
        stroke: #03ffd0;
      }

      .cls-5 {
        stroke: #04ffc9;
      }

      .cls-19 {
        filter: url(#drop-shadow-1);
      }

      .cls-6 {
        stroke: #00fff8;
      }

      .cls-7 {
        stroke: #03ffd6;
      }

      .cls-8 {
        stroke: #08ff8c;
      }

      .cls-9 {
        stroke: #02ffdd;
      }

      .cls-10 {
        stroke: #05ffbb;
      }

      .cls-11 {
        stroke: #01fff1;
      }

      .cls-12 {
        stroke: #04ffc2;
      }

      .cls-13 {
        stroke: #08ff93;
      }

      .cls-14 {
        stroke: #06ffa7;
      }

      .cls-15 {
        stroke: #05ffb5;
      }

      .cls-16 {
        stroke: #02ffe4;
      }

      .cls-17 {
        stroke: #06ffae;
      }

      .cls-18 {
        stroke: #07ffa0;
      }
    </style>
    <filter id="drop-shadow-1" filterUnits="userSpaceOnUse">
      <feOffset dx="41" dy="59"/>
      <feGaussianBlur result="blur" stdDeviation="3"/>
      <feFlood flood-color="aqua" flood-opacity=".7"/>
      <feComposite in2="blur" operator="in"/>
      <feComposite in="SourceGraphic"/>
    </filter>
  </defs>
  <g id="Layer_1-2" data-name="Layer 1">
    <g class="cls-19">
      <path class="cls-1" d="M417.6,665.14c-111.7-156.35-303.03-31.59-378.07-164.98-110.63-196.66,49.72-293.46,73.77-328.39,38.07-55.28,261,69.88,316.56-2.4,33.7-43.84-19-122.68.72-138.27,107.35-84.9,547.56,26.7,504.63,125.41-22.33,51.34-240.04,247.33-312.65,378.73-22.08,39.96-78.26,4.49-119.02,30.05-34.32,21.52-12.59,202.51-85.93,99.86Z"/>
      <path class="cls-6" d="M132.16,183.56c36.03-52.33,247.06,66.15,299.65-2.27,31.9-41.5-18-116.14.68-130.89,101.16-79.98,515.97,25.5,475.85,118.98-19.73,45.95-203.5,214.06-281.72,337.41-4.52,7.13-8.69,14.12-12.46,20.92-20.87,37.75-73.86,4.49-112.36,28.66-32.52,20.43-12.33,190.89-81.59,94.22-105.42-147.23-284.3-31.9-355.75-157.36-105.21-184.99,44.93-276.6,67.7-309.66Z"/>
      <path class="cls-11" d="M151.03,195.34c34-49.38,233.13,62.41,282.75-2.14,30.1-39.16-16.99-109.61.64-123.51,94.98-75.06,484.38,24.29,447.07,112.55-18.36,43.37-190.22,201.83-263.97,318.22-4.26,6.72-8.19,13.3-11.73,19.7-19.66,35.54-69.47,4.5-105.7,27.27-30.72,19.35-12.08,179.28-77.25,88.58-99.14-138.11-265.56-32.21-333.43-149.75-99.79-173.31,40.14-259.73,61.62-290.93Z"/>
      <path class="cls-3" d="M169.89,207.11c31.97-46.42,219.19,58.68,265.85-2.01,28.3-36.82-15.99-103.07.6-116.12,88.79-70.14,452.79,23.09,418.29,106.12-16.98,40.78-176.93,189.59-246.21,299.03-3.99,6.3-7.68,12.48-11.01,18.49-18.46,33.32-65.07,4.51-99.04,25.89-28.93,18.27-11.82,167.66-72.91,82.94-92.86-128.98-246.83-32.52-311.11-142.13-94.37-161.64,35.36-242.87,55.55-272.2Z"/>
      <path class="cls-16" d="M188.76,218.89c29.94-43.47,205.25,54.95,248.94-1.89,26.5-34.48-14.98-96.54.57-108.74,82.6-65.22,421.2,21.88,389.51,99.68-15.6,38.2-163.65,177.36-228.46,279.85-3.73,5.89-7.17,11.66-10.29,17.28-17.25,31.11-60.68,4.52-92.38,24.5-27.13,17.18-11.56,156.04-68.58,77.3-86.58-119.86-228.1-32.83-288.79-134.52-88.94-149.97,30.57-226,49.48-253.47Z"/>
      <path class="cls-9" d="M207.62,230.67c27.9-40.52,191.32,51.22,232.04-1.76,24.7-32.14-13.96-89.97.53-101.36,76.54-60.15,389.6,20.68,360.73,93.25-14.23,35.62-150.37,165.12-210.71,260.66-3.46,5.48-6.67,10.84-9.57,16.06-16.04,28.9-56.28,4.53-85.72,23.12-25.33,16.1-11.31,144.42-64.24,71.66-80.3-110.73-209.37-33.14-266.47-126.9-83.52-138.3,25.78-209.14,43.41-234.74Z"/>
      <path class="cls-7" d="M226.49,242.45c25.87-37.57,177.38,47.49,215.13-1.63,22.9-29.8-12.95-83.43.49-93.97,70.37-55.2,358.01,19.48,331.95,86.82-12.85,33.04-137.08,152.89-192.95,241.47-3.2,5.06-6.16,10.02-8.85,14.85-14.83,26.69-51.89,4.54-79.06,21.73-23.54,15.01-11.05,132.8-59.9,66.02-74.01-101.61-190.84-33.32-244.15-119.29-78.4-126.44,21-192.27,37.34-216.01Z"/>
      <path class="cls-4" d="M245.35,254.23c23.84-34.62,163.44,43.76,198.23-1.5,21.1-27.45-11.94-76.89.45-86.59,64.21-50.26,326.42,18.27,303.17,80.39-11.48,30.45-123.8,140.65-175.2,222.29-2.93,4.65-5.65,9.2-8.12,13.64-13.62,24.47-47.53,4.49-72.4,20.34-21.77,13.88-10.79,121.18-55.56,60.38-67.73-92.48-172.14-33.61-221.83-111.67-73.03-114.73,16.21-175.41,31.27-197.28Z"/>
      <path class="cls-5" d="M264.22,266.01c21.81-31.67,149.5,40.03,181.33-1.37,19.3-25.11-10.93-70.35.41-79.21,58.04-45.31,294.83,17.07,274.39,73.96-10.1,27.87-110.51,128.42-157.44,203.1-2.67,4.23-5.14,8.38-7.4,12.42-12.41,22.26-43.14,4.49-65.75,18.96-19.98,12.79-10.54,109.56-51.23,54.74-61.45-83.36-153.44-33.9-199.51-104.06-67.65-103.02,11.42-158.54,25.2-178.55Z"/>
      <path class="cls-12" d="M283.08,277.79c19.77-28.71,135.57,36.29,164.42-1.25,17.5-22.77-9.92-63.81.37-71.82,51.87-40.37,263.24,15.86,245.6,67.52-8.72,25.29-97.23,116.18-139.69,183.91-2.4,3.82-4.64,7.56-6.68,11.21-11.2,20.05-38.75,4.49-59.09,17.57-18.19,11.7-10.38,98.02-46.89,49.11-55.32-74.12-134.73-34.18-177.19-96.44-62.27-91.31,6.64-141.68,19.13-159.82Z"/>
      <path class="cls-10" d="M301.95,289.57c17.74-25.76,121.63,32.56,147.52-1.12,15.7-20.43-8.92-57.27.33-64.44,45.7-35.43,231.64,14.66,216.82,61.09-7.35,22.71-83.95,103.95-121.94,164.73-2.14,3.4-4.13,6.74-5.96,10-9.99,17.83-34.36,4.5-52.43,16.19-16.4,10.61-10.13,86.41-42.55,43.47-49.06-64.98-116.02-34.47-154.87-88.83-56.88-79.6,1.85-124.81,13.06-141.09Z"/>
      <path class="cls-15" d="M320.81,301.35c15.71-22.81,107.69,28.83,130.62-.99,13.9-18.09-7.91-50.73.3-57.05,39.53-30.49,200.15,13.49,188.04,54.66-5.92,20.14-70.66,91.71-104.18,145.54-1.87,2.99-3.62,5.92-5.24,8.78-8.78,15.62-29.97,4.5-45.77,14.8-14.6,9.52-9.89,74.79-38.21,37.83-42.79-55.85-97.31-34.75-132.55-81.21-51.49-67.89-2.94-107.95,6.99-122.36Z"/>
      <path class="cls-17" d="M339.67,313.13c13.67-19.86,93.76,25.1,113.71-.86,12.11-15.75-6.9-44.19.26-49.67,33.35-25.56,168.57,12.28,159.26,48.23-4.54,17.56-57.38,79.48-86.43,126.35-1.6,2.57-3.11,5.1-4.51,7.57-7.57,13.41-25.57,4.51-39.11,13.41-12.81,8.43-9.64,63.18-33.87,32.19-36.52-46.71-78.59-35.03-110.23-73.6-46.08-56.18-7.72-91.08.92-103.63Z"/>
      <path class="cls-14" d="M358.54,324.91c11.64-16.91,79.82,21.37,96.81-.73,10.31-13.41-5.89-37.64.22-42.29,27.17-20.63,136.98,11.07,130.48,41.8-3.16,14.97-44.09,67.24-68.67,107.17-1.34,2.16-2.61,4.28-3.79,6.36-6.36,11.2-21.18,4.51-32.45,12.03s-9.39,51.57-29.54,26.55c-30.25-37.57-59.85-35.31-87.91-65.98-40.66-44.46-12.51-74.22-5.15-84.9Z"/>
      <path class="cls-18" d="M377.4,336.69c9.61-13.95,65.88,17.64,79.9-.61,8.51-11.07-4.89-31.11.18-34.9,20.97-15.72,105.39,9.86,101.7,35.37-1.79,12.38-30.81,55.01-50.92,87.98-1.07,1.74-2.1,3.46-3.07,5.14-5.15,8.98-16.78,4.53-25.79,10.64s-9.14,39.96-25.2,20.91c-23.98-28.44-41.1-35.59-65.59-58.37-35.2-32.75-17.3-57.35-11.23-66.17Z"/>
      <path class="cls-2" d="M396.27,348.47c7.58-11,51.94,13.91,63-.48,6.71-8.73-3.88-24.57.14-27.52,14.76-10.83,73.79,8.64,72.92,28.93-.42,9.8-17.47,42.81-33.16,68.8-.8,1.33-1.59,2.64-2.35,3.93-3.94,6.77-12.38,4.55-19.13,9.26-7.42,5.18-8.88,28.35-20.86,15.27-17.69-19.3-22.3-35.88-43.27-50.75-29.68-21.06-22.08-40.48-17.3-47.44Z"/>
      <path class="cls-13" d="M415.13,360.25c5.54-8.05,38.01,10.18,46.1-.35,4.91-6.38-2.88-18.04.1-20.14,8.51-5.98,42.17,7.43,44.14,22.5.94,7.21-4.2,30.57-15.41,49.61-.54.92-1.09,1.82-1.63,2.72-2.73,4.56-7.98,4.58-12.47,7.87-5.61,4.12-8.6,16.73-16.52,9.63-11.37-10.18-3.43-36.24-20.95-43.14-24.06-9.47-26.87-23.62-23.37-28.71Z"/>
      <path class="cls-8" d="M462.06,417.53c-4.92-1.24,15.42-36.87,1.37-35.52-18.46,1.77-31.66-6.75-29.44-9.98,3.51-5.1,24.07,6.44,29.19-.22,3.11-4.04-1.93-11.58.07-12.75,2.17-1.28,10.5,6.23,15.36,16.07,2.29,4.63,9.04,18.3,2.34,30.42-3.75,6.79-12.06,13.7-18.9,11.98Z"/>
    </g>
  </g>
</svg>